HIERARCHY
ROOT joint_0
{
	OFFSET 0.000000 0.000000 0.000000
	CHANNELS 6 Xposition Yposition Zposition Zrotation Yrotation Xrotation 
	JOINT joint_1
	{
		OFFSET 5.091736 1.614004 124.993042
		CHANNELS 3 Zrotation Yrotation Xrotation
		JOINT joint_2
		{
			OFFSET -7.754517 4.363039 113.797974
			CHANNELS 3 Zrotation Yrotation Xrotation
			JOINT joint_3
			{
				OFFSET -8.706238 5.370684 113.558960
				CHANNELS 3 Zrotation Yrotation Xrotation
				JOINT joint_4
				{
					OFFSET 2.800659 5.843341 158.209106
					CHANNELS 3 Zrotation Yrotation Xrotation
					JOINT joint_5
					{
						OFFSET 20.525452 8.617594 92.185913
						CHANNELS 3 Zrotation Yrotation Xrotation
						End Site
						{
							OFFSET 0.000000 0.000000 0.000000
						}
					}
				}
				JOINT joint_6
				{
					OFFSET -4.183167 -30.671114 90.057007
					CHANNELS 3 Zrotation Yrotation Xrotation
					JOINT joint_7
					{
						OFFSET -24.729675 -138.200195 -6.097900
						CHANNELS 3 Zrotation Yrotation Xrotation
						JOINT joint_8
						{
							OFFSET 16.966858 -51.567780 -315.633057
							CHANNELS 3 Zrotation Yrotation Xrotation
							JOINT joint_9
							{
								OFFSET 129.835388 -40.459091 176.646973
								CHANNELS 3 Zrotation Yrotation Xrotation
								End Site
								{
									OFFSET 0.000000 0.000000 0.000000
								}
							}
						}
					}
				}
				JOINT joint_10
				{
					OFFSET 7.338745 37.199406 87.346069
					CHANNELS 3 Zrotation Yrotation Xrotation
					JOINT joint_11
					{
						OFFSET 20.327698 137.488367 -20.779053
						CHANNELS 3 Zrotation Yrotation Xrotation
						JOINT joint_12
						{
							OFFSET 150.763062 48.206573 -278.419922
							CHANNELS 3 Zrotation Yrotation Xrotation
							JOINT joint_13
							{
								OFFSET 12.571289 -162.355251 152.253906
								CHANNELS 3 Zrotation Yrotation Xrotation
								End Site
								{
									OFFSET 0.000000 0.000000 0.000000
								}
							}
						}
					}
				}
			}
		}
	}
	JOINT joint_14
	{
		OFFSET -7.600342 -77.970001 -95.010986
		CHANNELS 3 Zrotation Yrotation Xrotation
		JOINT joint_15
		{
			OFFSET -2.666199 -21.455009 -443.700989
			CHANNELS 3 Zrotation Yrotation Xrotation
			JOINT joint_16
			{
				OFFSET -22.487976 -19.310196 -481.059006
				CHANNELS 3 Zrotation Yrotation Xrotation
				JOINT joint_17
				{
					OFFSET 177.776611 65.723053 -82.445997
					CHANNELS 3 Zrotation Yrotation Xrotation
					End Site
					{
						OFFSET 0.000000 0.000000 0.000000
					}
				}
			}
		}
	}
	JOINT joint_18
	{
		OFFSET 17.063904 75.900681 -95.447021
		CHANNELS 3 Zrotation Yrotation Xrotation
		JOINT joint_19
		{
			OFFSET -21.510803 8.101997 -443.629944
			CHANNELS 3 Zrotation Yrotation Xrotation
			JOINT joint_20
			{
				OFFSET -7.473022 -28.501774 -481.230011
				CHANNELS 3 Zrotation Yrotation Xrotation
				JOINT joint_21
				{
					OFFSET 177.760559 -64.115177 -83.737001
					CHANNELS 3 Zrotation Yrotation Xrotation
					End Site
					{
						OFFSET 0.000000 0.000000 0.000000
					}
				}
			}
		}
	}
}
MOTION
Frames: 5
Frame Time: 0.016667
216.489456 -14.670444 1130.083984 27.619443 -1.142659 -1.313652 -0.430633 -1.575385 3.626204 -0.490656 0.104551 -0.608052 -0.360462 -0.371766 0.639879 0.104058 1.508157 -0.778836 0.000000 0.000000 0.000000 -2.030948 2.808801 2.758014 18.123439 10.993306 -10.232038 -168.408299 45.805196 -161.173165 0.000000 0.000000 0.000000 -2.299417 15.782527 -0.141724 17.489221 20.111033 -0.889953 36.438100 30.867901 27.653452 0.000000 0.000000 0.000000 -13.934380 -3.342955 -1.231558 -15.277932 22.443533 -8.595419 -14.788692 -2.690653 -5.227625 0.000000 0.000000 0.000000 -12.211548 -5.538987 9.979968 -10.198491 35.693207 1.836560 -5.737310 4.082369 -0.804421 0.000000 0.000000 0.000000 
220.786362 -17.053675 1124.855957 28.919360 -1.026380 -1.201573 -0.356976 -1.185080 3.556662 -0.318893 0.046411 -0.583132 -0.193192 -0.224559 0.611409 0.148504 1.941582 -1.202494 0.000000 0.000000 0.000000 -2.138351 2.781329 2.572988 15.868270 11.500307 -9.414761 -169.833400 47.046865 -160.389212 0.000000 0.000000 0.000000 -1.694665 15.122884 -0.638303 17.053343 18.932158 -0.934708 34.695002 31.505784 24.562213 0.000000 0.000000 0.000000 -14.528928 -2.181338 -0.765068 -15.738788 21.144348 -8.913171 -15.255282 -4.288490 -4.834947 0.000000 0.000000 0.000000 -13.962347 -7.483959 11.036642 -11.568602 38.653643 -0.696383 -7.312179 4.945943 -1.053484 0.000000 0.000000 0.000000 
225.295654 -19.017374 1120.522949 30.323714 -0.820117 -1.152373 -0.189621 -1.044719 3.753888 -0.045125 0.026264 -0.615555 0.096824 -0.120271 0.615964 0.192304 2.505095 -1.771273 0.000000 0.000000 0.000000 -2.030607 2.619396 2.244923 13.327557 12.236999 -8.681756 -171.217036 47.400474 -161.062437 0.000000 0.000000 0.000000 -0.986678 14.400504 -1.364902 16.306908 17.494747 -0.593479 32.676554 31.563067 21.879719 0.000000 0.000000 0.000000 -15.458816 -0.757656 0.004468 -16.393091 18.952739 -9.201852 -16.021809 -5.673045 -4.659627 0.000000 0.000000 0.000000 -15.708405 -9.635125 12.278279 -12.917495 41.749497 -3.652112 -8.983723 6.763011 -0.973452 0.000000 0.000000 0.000000 
229.856644 -20.211449 1116.886963 31.686740 -0.649819 -1.125542 -0.052653 -0.913219 4.005315 0.227073 0.014248 -0.652704 0.396111 -0.031514 0.631297 0.219201 3.011636 -2.319753 0.000000 0.000000 0.000000 -1.898151 2.367759 1.921657 11.135431 13.058381 -8.165641 -172.341200 47.106393 -162.552195 0.000000 0.000000 0.000000 -0.426230 13.688939 -2.026501 15.494543 16.185093 -0.673118 31.093477 31.335257 20.097696 0.000000 0.000000 0.000000 -16.370138 0.486395 0.770489 -16.980325 17.046231 -9.566740 -16.716806 -6.752334 -4.552795 0.000000 0.000000 0.000000 -17.305584 -11.709854 13.513972 -14.143970 44.679404 -6.582801 -10.507546 8.640982 -0.805250 0.000000 0.000000 0.000000 
234.362915 -20.419191 1113.817017 32.956447 -0.595878 -1.155199 -0.060047 -0.626065 4.265190 0.420232 0.011003 -0.680113 0.618776 0.037191 0.645970 0.264318 3.283565 -2.829477 0.000000 0.000000 0.000000 -1.854432 2.102591 1.650904 9.938867 13.844271 -7.896707 -172.784613 46.158324 -164.504818 0.000000 0.000000 0.000000 -0.217705 13.065809 -2.397248 14.724863 15.357935 -1.755546 30.387352 30.998916 19.515339 0.000000 0.000000 0.000000 -16.999484 1.180059 1.382370 -17.387564 16.420602 -10.168030 -17.168145 -7.627092 -4.388021 0.000000 0.000000 0.000000 -18.777482 -13.545043 14.697441 -15.243069 47.354872 -9.317294 -11.784028 9.727411 -0.830850 0.000000 0.000000 0.000000 
